<?xml version="1.0" standalone="no"?>
<!DOCTYPE svg PUBLIC "-//W3C//DTD SVG 20010904//EN"
 "http://www.w3.org/TR/2001/REC-SVG-20010904/DTD/svg10.dtd">
<svg version="1.0" xmlns="http://www.w3.org/2000/svg"
 width="512.000000pt" height="512.000000pt" viewBox="0 0 512.000000 512.000000"
 preserveAspectRatio="xMidYMid meet">
<metadata>
Created by potrace 1.14, written by Peter Selinger 2001-2017
</metadata>
<g transform="translate(0.000000,512.000000) scale(0.100000,-0.100000)"
fill="#000000" stroke="none">
<path d="M4922 4906 c1 -10 8 -17 13 -17 15 1 12 24 -3 29 -9 3 -13 -2 -10
-12z"/>
<path d="M3374 4685 c-7 -18 3 -35 22 -35 8 0 14 10 14 25 0 27 -27 35 -36 10z"/>
<path d="M4235 4650 c-4 -6 -21 -10 -39 -9 -17 2 -36 0 -43 -4 -6 -4 -22 -3
-35 2 -14 5 -33 4 -48 -2 -14 -5 -40 -9 -57 -8 -20 2 -33 -2 -33 -9 0 -7 -14
-11 -32 -10 -18 1 -37 1 -43 -1 -12 -3 -17 -3 -85 -14 -30 -4 -63 -9 -72 -10
-10 -1 -25 -8 -35 -17 -12 -10 -34 -15 -66 -13 -35 2 -50 -2 -54 -12 -4 -9
-14 -12 -29 -9 -12 3 -26 2 -29 -4 -3 -5 -15 -10 -26 -10 -11 0 -22 -6 -25
-14 -4 -9 -17 -12 -47 -9 -36 4 -46 1 -66 -21 -18 -19 -34 -26 -63 -26 -25 0
-41 -5 -44 -15 -4 -8 -12 -15 -20 -15 -8 0 -14 -6 -14 -14 0 -20 -21 -31 -30
-16 -9 15 -50 -7 -50 -27 0 -7 -6 -10 -13 -7 -17 6 -88 -24 -103 -45 -7 -9
-16 -16 -21 -16 -8 0 -21 -10 -58 -42 -7 -7 -20 -13 -29 -13 -8 0 -24 -9 -34
-21 -11 -11 -32 -23 -48 -28 -19 -5 -30 -15 -32 -30 -2 -14 -9 -21 -17 -17 -7
2 -19 -2 -26 -10 -7 -8 -18 -13 -25 -10 -14 6 -94 -86 -94 -108 0 -9 -6 -16
-14 -16 -8 0 -16 -10 -18 -22 -2 -13 -19 -33 -40 -47 -21 -13 -38 -31 -38 -39
0 -8 -16 -36 -35 -62 -19 -26 -35 -55 -35 -63 0 -9 -8 -20 -17 -26 -15 -8 -16
-14 -7 -38 6 -17 9 -66 6 -116 -3 -60 -1 -87 7 -87 6 0 11 -6 11 -14 0 -8 8
-28 18 -45 13 -25 24 -31 52 -32 35 -1 35 -1 6 -8 -31 -6 -48 -31 -22 -31 9 0
16 -4 16 -10 0 -5 7 -10 15 -10 8 0 15 -7 15 -15 0 -8 -6 -15 -14 -15 -22 0
-28 -17 -15 -41 l11 -21 11 23 c14 27 40 39 31 14 -9 -23 88 -112 139 -127 20
-6 37 -15 37 -19 0 -12 55 -39 78 -39 11 0 22 -9 25 -20 3 -11 14 -20 25 -20
11 0 25 -7 33 -16 8 -10 21 -13 36 -9 13 3 23 1 23 -5 0 -5 7 -10 15 -10 8 0
15 -4 15 -10 0 -14 27 -12 33 3 4 8 8 8 14 2 17 -20 79 -34 134 -29 46 4 58 2
63 -11 4 -13 13 -15 36 -10 23 5 32 3 36 -10 5 -11 16 -16 38 -14 17 2 41 -3
53 -9 12 -7 31 -12 42 -12 11 0 31 -11 45 -25 25 -25 46 -32 46 -16 0 12 83 1
92 -13 5 -8 11 -7 19 1 10 10 19 7 44 -12 30 -22 36 -23 96 -15 92 14 104 13
130 -13 57 -54 100 -68 141 -46 13 7 23 7 27 1 3 -5 23 -12 43 -16 31 -6 37
-11 35 -29 -2 -19 4 -23 38 -27 44 -5 105 -35 105 -50 0 -6 7 -10 15 -10 8 0
35 -19 60 -43 42 -41 45 -47 45 -95 0 -40 4 -52 15 -52 24 0 17 -36 -10 -48
-14 -7 -25 -20 -25 -31 0 -11 -5 -23 -11 -26 -5 -4 -9 -17 -8 -28 2 -29 -11
-86 -22 -93 -5 -3 -9 -12 -9 -20 0 -9 -7 -22 -15 -30 -8 -9 -15 -26 -15 -40 0
-13 -3 -24 -8 -24 -4 0 -29 -22 -57 -49 -27 -27 -55 -46 -62 -44 -9 4 -11 0
-7 -11 8 -20 -24 -48 -44 -41 -8 3 -16 -4 -19 -15 -3 -11 -9 -18 -13 -15 -4 2
-20 -9 -35 -25 -16 -17 -36 -30 -44 -30 -9 0 -27 -9 -41 -20 -14 -11 -28 -20
-32 -20 -16 0 -118 -71 -118 -82 0 -6 -3 -8 -6 -5 -4 3 -25 -7 -48 -23 -22
-16 -54 -32 -69 -36 -16 -4 -31 -13 -34 -20 -3 -8 -23 -17 -45 -21 -28 -4 -42
-12 -45 -24 -3 -10 -9 -16 -14 -14 -12 8 -29 -29 -30 -67 l-1 -33 -10 41 -10
41 -77 -40 c-42 -22 -81 -43 -87 -48 -6 -5 -28 -10 -50 -11 l-39 -3 -3 -63
c-2 -34 -7 -62 -12 -62 -6 0 -21 18 -35 40 -28 45 -40 50 -48 19 -5 -18 -11
-20 -45 -14 -33 5 -42 3 -53 -13 -17 -24 -59 -47 -59 -32 0 5 -7 10 -15 10 -8
0 -15 -8 -15 -17 0 -13 -3 -14 -12 -5 -8 8 -18 6 -40 -9 -16 -12 -35 -22 -43
-23 -9 -1 -20 -7 -26 -13 -8 -8 -18 -8 -36 0 -21 9 -27 8 -34 -6 -6 -9 -21
-17 -34 -17 -16 0 -25 -6 -25 -15 0 -12 -10 -15 -42 -13 l-41 3 -22 -55 c-13
-33 -28 -56 -38 -58 -26 -5 -66 24 -73 54 -4 13 -11 23 -18 21 -16 -5 -30 -85
-17 -101 8 -9 -1 -12 -39 -11 -39 1 -50 -2 -50 -14 -1 -23 -30 17 -30 41 0 14
-8 17 -35 16 -42 -2 -51 -11 -30 -31 8 -9 15 -26 15 -39 0 -20 -5 -23 -39 -23
-22 0 -43 4 -47 8 -13 13 -54 7 -60 -8 -9 -21 -24 -19 -24 4 0 12 -8 20 -22
23 -43 7 -66 -3 -79 -33 -21 -52 -32 -58 -85 -47 -40 9 -48 8 -56 -7 -9 -15
-11 -15 -29 4 -23 25 -108 75 -115 68 -3 -2 -7 -18 -8 -33 -3 -29 -4 -29 -68
-29 -40 0 -71 -5 -81 -14 -12 -9 -28 -11 -55 -6 -59 12 -145 13 -165 3 -12 -6
-19 -5 -23 5 -6 16 -94 21 -94 6 0 -16 -33 -10 -77 13 -36 19 -46 21 -62 11
-12 -8 -22 -9 -26 -3 -9 14 -33 1 -41 -22 -5 -16 -11 -18 -32 -13 -15 4 -31
13 -35 21 -5 9 -26 14 -62 14 -42 0 -55 4 -55 15 0 10 -11 15 -35 15 -23 0
-35 5 -35 14 0 8 -19 18 -45 25 -41 10 -47 16 -75 71 -17 33 -35 60 -40 60
-17 0 -68 60 -91 106 -11 24 -27 44 -35 44 -8 0 -14 7 -14 14 0 8 -11 27 -25
42 -17 18 -23 34 -19 46 3 10 -2 31 -11 45 -11 17 -14 28 -7 32 7 4 8 12 2 21
-6 8 -10 27 -10 42 0 15 -5 30 -11 34 -6 3 -9 15 -6 25 3 11 1 19 -5 19 -5 0
-8 10 -6 22 2 17 10 23 28 23 15 0 24 5 22 13 -1 7 4 20 13 28 30 30 18 42
-51 50 -27 3 -51 7 -55 9 -3 2 -1 30 4 61 9 49 9 57 -6 66 -9 5 -17 14 -17 19
0 6 4 8 9 4 16 -9 23 15 13 43 -22 60 -25 68 -27 85 -1 11 -7 22 -14 27 -9 5
-11 18 -6 39 5 25 3 35 -11 45 -12 9 -14 15 -6 20 15 9 15 51 0 75 -9 15 -9
28 1 59 13 37 12 42 -8 63 -24 26 -27 49 -9 67 10 10 10 15 -2 23 -13 8 -13
11 2 20 22 12 24 33 3 25 -11 -4 -15 1 -15 19 0 16 6 25 15 25 17 0 20 25 5
35 -6 4 -4 12 5 21 8 9 15 24 15 34 0 11 9 35 20 55 17 31 18 36 5 41 -12 5
-13 9 -4 20 16 20 21 74 8 90 -13 16 -4 34 17 34 8 0 14 6 14 14 0 25 -18 27
-34 5 -8 -12 -19 -19 -24 -15 -5 3 -18 -12 -28 -34 -10 -22 -22 -40 -26 -40
-10 0 -30 -69 -25 -84 3 -8 3 -17 -1 -20 -3 -4 -7 -17 -9 -29 -5 -31 -26 -77
-36 -77 -4 0 -5 -15 -2 -34 5 -26 3 -35 -10 -40 -13 -5 -15 -9 -6 -20 8 -10 6
-17 -10 -32 -17 -15 -19 -26 -14 -65 5 -37 3 -48 -9 -52 -18 -7 -22 -37 -5
-37 5 0 7 -5 3 -12 -11 -17 -14 -59 -6 -72 11 -18 12 -76 1 -76 -10 0 -6 -106
5 -117 10 -10 7 -43 -4 -43 -18 0 -10 -22 10 -27 11 -3 20 -13 20 -23 0 -26
-21 -80 -31 -80 -5 0 -28 34 -51 74 -24 42 -52 77 -62 80 -16 4 -17 7 -6 20
10 13 9 20 -4 41 -9 13 -16 31 -16 40 0 8 -5 15 -11 15 -5 0 -8 4 -4 9 3 5 1
12 -5 16 -7 4 -10 -45 -10 -144 0 -146 1 -151 23 -162 12 -7 28 -20 35 -31 7
-10 21 -18 30 -18 10 0 23 -10 30 -21 10 -16 17 -18 25 -10 16 16 31 14 55 -8
13 -11 22 -30 22 -47 0 -16 8 -41 17 -54 10 -14 16 -33 15 -43 -2 -9 2 -17 7
-17 6 0 11 -6 11 -14 0 -8 6 -17 13 -19 9 -4 9 -8 -2 -15 -17 -12 -6 -32 17
-32 14 0 15 -2 2 -10 -12 -8 -12 -10 4 -16 13 -5 16 -13 11 -32 -4 -18 -1 -28
15 -39 11 -8 20 -23 20 -34 0 -12 7 -19 19 -19 13 0 19 -6 19 -17 -3 -41 12
-71 41 -81 22 -8 30 -18 33 -39 2 -20 9 -29 25 -31 15 -2 25 -13 29 -28 3 -13
20 -34 38 -46 17 -11 42 -31 56 -44 81 -76 126 -113 137 -114 18 0 81 -37 132
-76 24 -19 54 -34 66 -34 12 0 37 -7 55 -16 26 -14 37 -15 52 -5 26 16 55 5
62 -24 7 -29 50 -44 76 -27 13 8 21 7 29 -1 10 -10 22 -12 93 -16 16 0 29 -8
32 -19 5 -15 16 -18 63 -17 46 0 59 5 70 22 21 31 64 14 87 -33 14 -30 19 -34
31 -24 8 7 15 9 15 5 0 -4 7 -2 15 5 10 9 15 9 15 1 0 -6 5 -11 10 -11 6 0 10
8 10 18 0 14 2 14 9 3 5 -8 16 -11 25 -8 9 4 16 2 16 -3 0 -6 7 -10 15 -10 8
0 15 5 15 10 0 21 62 10 85 -14 22 -23 80 -46 118 -46 26 0 57 18 57 34 0 8
17 15 45 19 26 2 49 8 53 11 3 4 9 28 12 54 3 26 9 47 13 47 5 0 16 -22 25
-48 12 -34 26 -54 46 -65 16 -10 38 -25 48 -35 14 -14 23 -15 38 -7 17 9 20
21 20 79 0 51 4 70 14 74 17 7 22 -6 31 -84 6 -57 6 -57 43 -62 47 -5 59 4 67
56 17 111 42 149 71 110 16 -23 46 -7 54 28 4 17 8 20 14 11 5 -8 17 -11 31
-8 29 8 55 -2 55 -20 0 -8 7 -14 15 -14 10 0 15 -10 15 -28 0 -38 26 -72 56
-72 17 0 24 5 24 20 0 11 4 20 9 20 6 0 11 15 13 33 2 24 8 33 26 35 12 2 22
9 22 15 0 8 3 7 9 -2 7 -11 13 -10 35 4 14 10 26 13 26 7 0 -6 -5 -12 -12 -14
-8 -3 -9 -12 0 -36 6 -19 7 -32 1 -32 -20 0 -7 -20 22 -36 26 -13 36 -14 55
-3 24 13 31 33 15 43 -5 4 -12 24 -16 47 -4 22 -13 43 -21 46 -18 7 -18 23 0
23 7 0 19 7 26 15 12 15 61 21 73 9 11 -11 -5 -34 -23 -34 -40 0 -31 -62 12
-76 17 -5 27 0 44 21 15 19 23 23 26 14 4 -11 8 -10 22 4 9 9 14 21 11 27 -3
5 1 10 9 10 9 0 16 6 16 14 0 27 30 26 55 -2 21 -24 32 -28 72 -26 46 2 77 24
33 24 -17 0 -20 4 -15 20 4 13 0 23 -14 32 -12 7 -21 16 -21 20 0 13 34 8 54
-7 11 -8 28 -15 39 -15 16 0 18 5 13 25 -8 32 1 50 17 36 8 -6 31 -5 64 1 66
13 88 41 72 88 -13 36 -8 46 18 35 10 -4 42 -7 72 -5 63 2 91 21 73 50 -9 14
-8 21 5 31 13 11 18 10 33 -9 22 -27 40 -29 40 -4 0 32 22 42 92 42 56 0 69 3
78 19 15 29 13 91 -4 97 -12 5 -13 11 -4 30 6 13 15 21 20 18 4 -3 6 -10 2
-16 -7 -12 46 -69 58 -62 4 3 8 16 8 29 0 17 4 23 14 19 8 -3 25 6 38 19 29
29 97 45 109 25 12 -18 11 -30 -1 -23 -5 3 -10 -1 -10 -10 0 -22 39 -16 54 8
9 14 7 21 -6 31 -19 14 -25 32 -8 21 22 -13 8 15 -16 34 l-26 20 21 29 c20 28
32 32 95 33 11 0 25 7 31 16 6 9 26 16 43 17 21 1 31 6 30 16 -1 8 0 32 0 53
2 41 22 52 22 11 0 -18 6 -28 21 -31 12 -4 18 -11 15 -20 -7 -17 22 -29 36
-15 8 8 8 15 0 24 -6 7 -17 32 -25 55 l-14 42 28 6 c31 7 50 26 31 33 -21 7
-13 42 14 67 18 17 25 31 21 45 -3 11 -1 20 4 20 5 0 9 7 9 15 0 8 -4 15 -9
15 -21 0 -18 30 5 55 13 14 22 30 19 34 -8 15 20 61 38 61 29 0 19 20 -15 27
-29 6 -30 7 -10 14 14 5 20 14 16 24 -4 11 0 15 15 15 26 0 39 28 20 42 -11 7
-11 11 -1 15 18 7 15 40 -5 52 -17 10 -17 10 0 11 24 0 16 24 -9 28 -13 2 -25
16 -33 38 -7 19 -19 38 -27 41 -9 3 -12 13 -8 27 4 16 -6 37 -37 77 -53 69
-69 81 -95 75 -14 -4 -24 0 -28 9 -3 8 -12 15 -21 15 -16 0 -30 13 -95 89 -19
23 -40 41 -48 41 -7 0 -38 16 -69 36 -33 21 -64 34 -74 31 -11 -3 -19 -1 -19
4 0 5 -6 9 -14 9 -7 0 -19 7 -26 15 -12 14 -16 13 -41 -11 l-27 -26 -4 28 c-2
24 -7 29 -27 26 -17 -1 -22 2 -17 13 6 15 -3 19 -41 16 -11 -1 -24 3 -28 8 -3
6 -21 11 -39 11 -18 0 -36 3 -40 8 -4 4 -24 8 -44 9 -63 3 -111 15 -123 29 -9
11 -15 12 -26 3 -10 -9 -20 -9 -36 -1 -12 6 -50 14 -85 17 -34 4 -64 11 -67
15 -3 4 -33 11 -67 15 -35 4 -74 12 -88 19 -14 7 -43 11 -63 8 -30 -3 -37 -1
-37 13 0 12 -6 16 -20 12 -11 -3 -26 0 -33 7 -6 7 -36 13 -66 14 -38 1 -57 6
-63 16 -6 11 -17 14 -37 10 -20 -4 -30 -1 -34 10 -9 23 -77 22 -78 -1 0 -14
-2 -13 -9 5 -10 23 -26 29 -32 11 -2 -6 -16 1 -30 14 -15 14 -37 28 -48 32
-11 3 -25 15 -31 26 -5 11 -14 17 -18 14 -5 -2 -15 9 -22 27 -12 29 -11 32 14
52 31 25 34 36 11 36 -9 0 -14 6 -11 13 2 6 -2 20 -11 29 -12 15 -13 22 -2 50
7 18 19 40 27 49 19 23 17 25 -24 27 -50 4 -85 51 -48 66 9 3 15 0 15 -9 0 -8
7 -15 15 -15 8 0 15 8 15 18 0 19 33 52 51 52 6 0 9 6 6 14 -8 21 58 43 78 26
12 -10 15 -9 15 4 0 10 14 23 31 30 33 14 73 10 63 -5 -3 -5 -1 -9 5 -9 20 0
24 23 6 36 -15 11 -16 17 -6 42 7 16 23 34 36 40 13 6 26 20 30 31 3 12 11 21
17 21 6 0 3 9 -6 19 -21 23 -3 40 21 20 13 -11 18 -10 34 10 10 12 26 24 35
25 19 3 34 25 27 42 -6 17 18 29 28 13 6 -11 9 -10 15 4 3 9 12 17 20 17 8 0
14 10 14 23 0 18 2 19 10 7 7 -12 12 -8 21 18 10 30 29 44 29 22 0 -5 5 -10
11 -10 7 0 9 9 6 21 -7 26 12 33 56 21 20 -6 40 -6 48 -1 8 5 10 9 4 9 -5 1 0
5 12 10 12 5 24 21 28 38 6 28 9 29 78 36 40 4 77 8 82 8 17 1 40 -7 46 -16
10 -13 42 2 36 17 -7 18 12 47 20 30 8 -21 25 -14 18 7 -4 12 -2 20 5 20 7 0
10 7 7 14 -8 20 27 30 54 16 16 -9 23 -9 29 -1 3 7 14 9 22 6 9 -4 19 -2 23 4
3 6 15 11 26 11 10 0 19 4 19 9 0 5 8 7 19 4 10 -3 22 0 25 6 4 6 16 11 27 11
13 0 25 12 35 35 14 35 15 35 78 35 48 0 65 4 70 15 3 8 14 15 24 15 10 0 23
5 30 12 7 7 16 8 24 1 7 -5 24 -7 38 -5 14 2 39 4 56 5 17 1 39 11 49 21 15
15 20 16 23 5 12 -36 66 -58 88 -36 4 4 18 4 30 1 18 -5 24 -2 24 10 0 9 5 16
10 16 6 0 10 -4 10 -10 0 -5 9 -10 19 -10 11 0 23 5 26 10 10 17 22 11 29 -12
l6 -23 18 23 c17 22 19 22 51 6 20 -10 36 -13 40 -7 11 18 36 20 65 6 33 -17
83 -25 144 -25 23 1 42 -3 42 -8 0 -6 9 -10 20 -10 11 0 29 -9 41 -21 11 -11
27 -18 35 -15 8 3 14 -1 14 -8 0 -7 7 -19 16 -27 8 -7 13 -21 11 -31 -3 -10
-1 -18 3 -18 5 0 3 -14 -3 -30 -10 -25 -9 -33 3 -40 14 -9 12 -11 -19 -14 -20
-2 -26 -26 -7 -26 20 0 21 -16 1 -24 -9 -3 -15 -18 -15 -40 0 -44 -9 -66 -26
-66 -16 0 -46 -43 -43 -62 5 -24 -22 -88 -37 -88 -23 0 -13 -44 10 -48 22 -5
36 13 36 48 0 17 11 32 36 49 37 26 84 37 84 20 0 -6 5 -7 10 -4 6 4 10 104
10 268 0 222 -2 258 -14 242 -13 -17 -15 -16 -51 19 -31 31 -43 37 -69 33 -18
-2 -35 1 -41 9 -11 14 -120 23 -132 11 -13 -13 -67 -7 -85 10 -14 13 -21 14
-30 5 -16 -16 -39 -15 -36 0 2 6 -5 14 -14 16 -11 2 -18 -2 -18 -10 0 -10 -14
-14 -50 -13 -27 0 -50 4 -50 8 0 5 -29 5 -64 2 -36 -4 -70 -3 -78 1 -7 5 -33
9 -58 9 -25 0 -55 4 -67 8 -13 5 -24 4 -28 -3z m-3885 -2580 c0 -5 -4 -10 -9
-10 -6 0 -13 5 -16 10 -3 6 1 10 9 10 9 0 16 -4 16 -10z m19 -172 c-1 -18 -3
-25 -6 -15 -2 9 -13 17 -24 17 -10 0 -19 7 -19 15 0 9 9 15 25 15 22 0 25 -4
24 -32z m117 -469 c29 -30 26 -47 -8 -45 -15 1 -23 7 -22 19 1 9 -2 17 -7 17
-5 0 -9 8 -9 18 0 14 -2 15 -10 2 -8 -13 -10 -13 -10 2 0 25 36 18 66 -13z
m3123 -78 c-15 -5 -22 6 -14 19 6 9 10 9 16 -1 5 -8 4 -15 -2 -18z m-329 -80
c0 -10 -30 -24 -37 -17 -3 3 -2 9 2 15 8 13 35 15 35 2z m-220 -161 c0 -11 -4
-20 -9 -20 -14 0 -23 18 -16 30 10 17 25 11 25 -10z"/>
<path d="M450 1442 c0 -6 4 -13 10 -17 5 -3 7 -12 4 -20 -4 -9 1 -13 15 -12
26 2 26 0 -4 33 -14 15 -25 22 -25 16z"/>
<path d="M2933 4464 c-5 -14 11 -34 27 -34 3 0 11 4 19 9 19 12 6 41 -19 41
-11 0 -23 -7 -27 -16z"/>
<path d="M4152 4383 c5 -26 38 -29 38 -4 0 15 -6 21 -21 21 -14 0 -19 -5 -17
-17z"/>
<path d="M5080 4009 c0 -6 -9 -8 -20 -4 -11 4 -20 2 -20 -4 0 -6 -7 -8 -15 -5
-20 8 -32 -25 -14 -37 16 -10 70 -12 93 -3 19 7 21 35 4 52 -15 15 -28 15 -28
1z"/>
<path d="M3000 3905 c-10 -12 -9 -16 5 -21 19 -8 40 9 31 25 -10 15 -21 14
-36 -4z"/>
<path d="M4908 3896 c-19 -14 -26 -86 -9 -86 13 0 71 72 71 87 0 17 -40 16
-62 -1z"/>
<path d="M2354 3869 c-10 -17 13 -36 27 -22 12 12 4 33 -11 33 -5 0 -12 -5
-16 -11z"/>
<path d="M2027 3829 c-35 -20 -7 -67 33 -54 25 8 25 16 2 43 -13 15 -22 18
-35 11z"/>
<path d="M4850 3760 c0 -13 9 -22 25 -26 34 -8 55 1 55 26 0 22 -19 27 -37 9
-8 -8 -13 -8 -17 0 -11 18 -26 13 -26 -9z"/>
<path d="M4800 3708 l-25 -23 24 -3 c23 -4 41 11 41 36 0 18 -13 15 -40 -10z"/>
<path d="M2310 3701 c0 -13 22 -27 51 -34 26 -7 70 15 57 28 -11 11 -108 16
-108 6z"/>
<path d="M4753 3645 c-21 -23 -15 -37 15 -33 19 2 28 9 30 26 4 26 -25 30 -45
7z"/>
<path d="M1466 3483 c-6 -15 8 -32 26 -33 12 0 18 18 12 34 -8 21 -30 20 -38
-1z"/>
<path d="M980 3389 c0 -6 -9 -8 -20 -4 -25 8 -38 -19 -20 -40 19 -23 49 -18
60 11 10 26 6 44 -11 44 -5 0 -9 -5 -9 -11z"/>
<path d="M2117 3374 c-8 -8 1 -24 13 -24 4 0 10 7 14 15 5 15 -14 21 -27 9z"/>
<path d="M2981 3361 c-15 -10 -8 -41 9 -41 15 0 25 29 14 40 -5 5 -15 5 -23 1z"/>
<path d="M2650 3336 c0 -9 7 -16 16 -16 9 0 14 5 12 12 -6 18 -28 21 -28 4z"/>
<path d="M4150 3203 c0 -25 2 -25 46 -20 41 4 75 21 63 30 -2 3 -28 7 -56 10
-52 6 -53 5 -53 -20z"/>
<path d="M1115 3180 c-7 -12 2 -30 16 -30 12 0 12 27 0 35 -5 3 -12 1 -16 -5z"/>
<path d="M1518 3078 c-7 -19 2 -38 19 -38 9 0 13 8 11 22 -3 25 -23 35 -30 16z"/>
<path d="M1887 3063 c-14 -13 -6 -33 12 -33 21 0 45 23 34 33 -8 9 -38 9 -46
0z"/>
<path d="M1315 2751 c-8 -26 4 -51 26 -51 20 0 36 40 24 59 -10 18 -43 12 -50
-8z"/>
<path d="M65 2717 c-10 -23 -30 -51 -43 -62 -21 -18 -23 -27 -20 -95 l3 -74
18 28 c14 21 16 31 7 41 -9 10 -6 15 9 20 13 4 23 18 27 41 3 19 10 34 15 34
5 0 9 7 9 15 0 8 9 15 20 15 23 0 27 28 6 36 -8 3 -12 13 -9 25 10 37 -22 19
-42 -24z"/>
<path d="M3586 2714 c-10 -26 -7 -44 8 -44 17 0 25 18 18 43 -5 21 -18 22 -26
1z"/>
<path d="M2706 2702 c-8 -14 9 -31 34 -34 19 -2 26 2 28 20 3 19 -1 22 -27 22
-16 0 -32 -4 -35 -8z"/>
<path d="M473 2645 c-19 -21 -16 -34 12 -41 53 -13 79 28 29 46 -30 12 -26 12
-41 -5z"/>
<path d="M4630 2610 c0 -33 19 -40 40 -15 10 12 10 18 0 30 -21 25 -40 18 -40
-15z"/>
<path d="M890 2615 c0 -9 9 -15 25 -15 18 0 23 4 19 15 -4 8 -15 15 -25 15
-10 0 -19 -7 -19 -15z"/>
<path d="M2100 2585 c0 -10 7 -15 18 -13 21 4 19 22 -2 26 -10 2 -16 -3 -16
-13z"/>
<path d="M476 2563 c-4 -10 1 -24 13 -36 17 -18 23 -19 51 -7 35 15 38 45 3
45 -12 0 -25 3 -29 8 -13 12 -32 8 -38 -10z"/>
<path d="M1720 2442 c0 -10 8 -26 19 -36 16 -14 20 -15 30 -2 20 24 9 51 -22
54 -21 3 -27 -1 -27 -16z"/>
<path d="M3571 2451 c-8 -5 -11 -16 -8 -25 6 -14 10 -14 27 -4 20 13 22 29 4
35 -5 1 -15 -1 -23 -6z"/>
<path d="M1417 2353 c-16 -15 -6 -33 18 -33 18 0 25 5 25 20 0 20 -28 28 -43
13z"/>
<path d="M3100 2251 c-15 -30 4 -71 33 -71 26 0 57 28 57 51 0 40 -71 55 -90
20z"/>
<path d="M1503 2214 c-8 -21 19 -46 40 -38 9 3 17 17 17 30 0 19 -5 24 -25 24
-14 0 -28 -7 -32 -16z"/>
<path d="M2979 2197 c-19 -13 -40 -22 -46 -20 -6 2 -13 -3 -17 -12 -7 -19 23
-33 34 -15 5 8 9 9 14 1 13 -20 38 -13 31 9 -5 15 -3 18 8 14 15 -5 57 23 57
38 0 16 -48 7 -81 -15z"/>
<path d="M3912 2173 c2 -10 14 -20 28 -21 14 -2 30 -8 37 -13 7 -7 14 -6 18 1
9 15 -35 49 -63 50 -17 0 -23 -5 -20 -17z"/>
<path d="M1912 2163 c5 -25 28 -28 28 -4 0 12 -6 21 -16 21 -9 0 -14 -7 -12
-17z"/>
<path d="M2820 2156 c0 -24 -2 -25 -64 -20 -52 4 -65 2 -70 -11 -4 -11 -13
-14 -26 -10 -14 5 -20 2 -20 -9 0 -23 -10 -20 -42 11 -15 15 -28 22 -28 16 0
-17 -61 -37 -103 -34 -33 2 -39 0 -34 -13 8 -20 8 -20 -36 -1 -20 8 -41 15
-47 15 -13 0 -51 -61 -44 -71 10 -16 -17 -19 -38 -5 -26 18 -65 20 -102 6 -20
-7 -26 -16 -26 -40 0 -16 -4 -30 -10 -30 -5 0 -10 7 -10 15 0 17 -31 20 -46 5
-15 -15 -44 -1 -44 21 0 24 -30 25 -37 1 -2 -10 -13 -23 -24 -30 -16 -10 -19
-9 -19 3 0 20 -39 20 -46 0 -4 -10 -11 -12 -18 -7 -29 23 -47 21 -80 -11 -35
-34 -94 -45 -109 -21 -4 8 -20 11 -41 7 -33 -5 -35 -4 -38 28 -4 40 -20 47
-48 19 -20 -20 -21 -23 -5 -47 22 -33 7 -52 -30 -35 -31 14 -65 16 -65 3 0 -5
-25 -11 -55 -13 -69 -6 -83 -17 -66 -54 17 -39 9 -39 -33 2 -34 33 -38 35 -64
22 -21 -10 -35 -11 -61 -2 -35 11 -81 8 -81 -7 0 -5 -11 -9 -25 -9 -16 0 -25
-6 -25 -15 0 -8 -9 -15 -19 -15 -11 0 -22 -6 -24 -12 -4 -10 -6 -10 -6 0 -1 6
-10 12 -20 12 -11 0 -23 5 -26 10 -8 13 -67 13 -102 -1 -15 -6 -66 -11 -113
-11 -47 0 -91 -5 -97 -11 -9 -7 -13 -5 -13 6 0 25 -20 31 -35 11 -12 -15 -16
-16 -24 -6 -12 20 -46 10 -46 -13 0 -17 6 -20 43 -17 40 4 44 2 55 -28 11 -28
15 -31 42 -26 21 4 41 -1 65 -15 l34 -21 33 36 c18 20 42 36 53 36 11 0 20 5
20 10 0 6 5 10 10 10 6 0 10 -6 10 -13 0 -22 45 -40 80 -33 17 3 44 15 58 27
l27 21 3 -21 c4 -22 17 -28 27 -11 4 7 13 6 26 -1 16 -8 26 -7 45 5 13 9 23
20 21 24 -1 4 3 8 8 9 6 1 9 -4 7 -12 -4 -21 47 -28 75 -10 22 15 26 15 36 1
16 -20 68 -9 74 15 3 11 14 19 24 19 11 0 22 7 25 15 4 8 17 15 30 15 13 0 24
5 24 10 0 18 30 11 30 -7 0 -10 7 -27 16 -38 12 -16 18 -18 34 -7 23 14 33 16
26 3 -9 -14 18 -60 39 -65 28 -7 30 -1 15 43 -8 26 -9 48 -3 67 14 42 33 42
33 0 0 -20 4 -36 9 -36 20 0 41 13 41 25 0 26 36 45 94 47 32 1 60 6 62 10 7
11 24 10 24 -2 0 -14 61 -70 76 -70 10 0 12 11 7 45 -8 60 27 106 40 53 5 -17
9 -19 20 -10 11 9 18 6 35 -13 12 -14 22 -29 22 -34 0 -6 5 -13 11 -17 15 -9
29 14 29 50 0 23 3 26 13 17 10 -8 19 -7 33 4 10 8 25 15 32 15 8 0 22 10 31
22 13 16 23 19 37 13 35 -15 84 -15 84 0 0 8 -5 17 -10 20 -20 12 1 24 31 18
26 -5 30 -3 27 12 -2 10 3 20 10 22 6 3 12 0 12 -6 0 -7 10 -9 25 -5 16 4 25
2 25 -6 0 -22 45 -6 48 18 4 26 10 27 34 6 13 -12 21 -14 31 -6 7 6 18 7 26 3
9 -6 29 3 58 25 49 38 65 41 83 19 18 -22 30 -18 30 10 0 21 5 25 31 25 17 0
37 6 45 14 18 19 18 26 -1 26 -8 0 -15 -4 -15 -10 0 -18 -18 -10 -23 10 -7 28
-27 25 -27 -4z"/>
<path d="M1940 2110 c0 -5 7 -10 15 -10 8 0 15 5 15 10 0 6 -7 10 -15 10 -8 0
-15 -4 -15 -10z"/>
<path d="M4080 2065 c0 -8 6 -15 14 -15 22 0 28 17 10 24 -22 9 -24 8 -24 -9z"/>
<path d="M2704 2059 c-10 -17 13 -36 27 -22 12 12 4 33 -11 33 -5 0 -12 -5
-16 -11z"/>
<path d="M4150 2051 c0 -26 17 -36 35 -21 23 19 18 40 -10 40 -18 0 -25 -5
-25 -19z"/>
<path d="M4640 2044 c0 -9 5 -14 12 -12 18 6 21 28 4 28 -9 0 -16 -7 -16 -16z"/>
<path d="M1126 2035 c4 -9 1 -15 -7 -15 -10 0 -8 -5 4 -17 23 -24 44 -4 28 26
-13 24 -33 29 -25 6z"/>
<path d="M3150 1835 c0 -19 24 -29 46 -21 13 5 14 9 4 21 -16 20 -50 19 -50 0z"/>
<path d="M1419 1794 c-11 -14 -10 -19 10 -35 32 -26 50 -25 44 4 -7 25 -22 47
-33 47 -4 0 -14 -7 -21 -16z"/>
<path d="M3492 1684 c4 -24 73 -27 73 -4 0 10 -12 16 -38 18 -33 3 -38 0 -35
-14z"/>
<path d="M3237 1639 c-9 -6 -17 -17 -17 -25 0 -19 61 -16 67 3 6 18 -29 33
-50 22z"/>
<path d="M2605 1610 c-7 -12 2 -30 16 -30 12 0 12 27 0 35 -5 3 -12 1 -16 -5z"/>
<path d="M1700 1425 c0 -9 6 -12 15 -9 8 4 15 10 15 15 0 5 -7 9 -15 9 -8 0
-15 -7 -15 -15z"/>
<path d="M1526 1351 c-8 -13 15 -51 31 -51 11 0 29 38 21 45 -11 10 -47 14
-52 6z"/>
<path d="M2390 1315 c-10 -12 -10 -18 0 -30 7 -8 18 -15 26 -15 13 0 34 30 34
49 0 16 -46 13 -60 -4z"/>
<path d="M1840 1241 c0 -29 18 -36 41 -15 27 24 24 34 -11 34 -23 0 -30 -5
-30 -19z"/>
<path d="M2140 1239 c0 -6 6 -17 14 -24 11 -12 16 -12 32 0 17 13 17 16 4 25
-20 13 -50 13 -50 -1z"/>
<path d="M3854 1195 c11 -52 18 -65 37 -65 14 0 19 7 19 25 0 26 -14 33 -26
14 -4 -7 -12 -1 -20 17 -8 16 -12 20 -10 9z"/>
<path d="M683 989 c-30 -11 -29 -37 1 -45 37 -9 61 -1 61 20 0 23 -32 36 -62
25z"/>
<path d="M2570 897 c-20 -7 -36 -20 -38 -31 -3 -16 1 -17 38 -11 l42 7 -7 -30
c-8 -41 12 -53 37 -21 10 13 22 29 28 36 14 18 13 26 -10 46 -23 20 -41 21
-90 4z"/>
<path d="M2495 839 c-8 -11 17 -49 32 -49 31 0 24 45 -8 53 -10 3 -21 1 -24
-4z"/>
<path d="M2170 755 c0 -43 20 -54 49 -28 28 23 27 30 -9 48 -39 20 -40 20 -40
-20z"/>
<path d="M1774 732 c-15 -23 -6 -132 11 -132 6 0 20 9 30 20 14 16 16 23 7 32
-7 7 -12 31 -12 55 0 46 -16 57 -36 25z"/>
<path d="M882 700 c-13 -11 -22 -27 -20 -37 4 -22 43 -29 64 -13 19 16 18 56
-2 64 -19 7 -15 9 -42 -14z"/>
<path d="M2060 711 c-23 -6 -26 -13 -21 -40 1 -11 39 -21 54 -15 16 6 20 64 4
63 -7 -1 -23 -4 -37 -8z"/>
<path d="M2212 646 c1 -10 8 -17 13 -17 15 1 12 24 -3 29 -9 3 -13 -2 -10 -12z"/>
<path d="M2698 509 c-23 -13 -23 -35 -2 -43 23 -9 65 20 58 39 -7 17 -31 19
-56 4z"/>
<path d="M2104 479 c-9 -15 12 -33 30 -26 9 4 16 13 16 22 0 17 -35 21 -46 4z"/>
<path d="M2890 456 c0 -19 29 -48 44 -43 17 6 20 38 4 48 -21 14 -48 10 -48
-5z"/>
</g>
</svg>
